<svg width="20" height="20" viewBox="0 0 20 20" fill="none" xmlns="http://www.w3.org/2000/svg">
  <circle cx="8.75" cy="8.75" r="5.7" fill="#E6FFFA" stroke="#0F766E" stroke-width="1.55"/>
  <path d="M13 13L17 17" stroke="#0F766E" stroke-width="1.85" stroke-linecap="round"/>
  <path d="M8.05 9.7L7.65 10.1C7.15 10.6 6.3 10.6 5.8 10.1C5.3 9.6 5.3 8.75 5.8 8.25L6.2 7.85C6.6 7.45 7.15 7.35 7.65 7.55" stroke="#F59E0B" stroke-width="1.1" stroke-linecap="round"/>
  <path d="M9.45 7.8L9.85 7.4C10.35 6.9 11.2 6.9 11.7 7.4C12.2 7.9 12.2 8.75 11.7 9.25L11.3 9.65C10.9 10.05 10.35 10.15 9.85 9.95" stroke="#F59E0B" stroke-width="1.1" stroke-linecap="round"/>
  <path d="M7.9 8.75H9.6" stroke="#F59E0B" stroke-width="1.1" stroke-linecap="round"/>
</svg>
